<svg xmlns="http://www.w3.org/2000/svg" viewBox="0 0 16 16" width="16" height="16">
  <circle cx="8" cy="8" r="7" fill="#0A0A0A" stroke="#8B5CF6" stroke-width="1"/>
  <path d="M5 7 C4 6, 4 5, 5 5 C6 4, 7 5, 8 6 C8 7, 7 7, 6 8 C6 8, 5 8, 5 7 Z" fill="none" stroke="#00D9FF" stroke-width="1"/>
  <path d="M11 7 C12 6, 12 5, 11 5 C10 4, 9 5, 8 6 C8 7, 9 7, 10 8 C10 8, 11 8, 11 7 Z" fill="none" stroke="#00D9FF" stroke-width="1"/>
  <path d="M8 7 L8 10" stroke="#00D9FF" stroke-width="1"/>
  <path d="M3 8 C4 7, 4 9, 5 8" stroke="#39FF14" stroke-width="1"/>
  <path d="M11 8 C12 7, 12 9, 13 8" stroke="#39FF14" stroke-width="1"/>
  <circle cx="8" cy="6" r="0.5" fill="#39FF14"/>
</svg>