<svg xmlns="http://www.w3.org/2000/svg" viewBox="0 0 64 64" width="64" height="64">
  <defs>
    <linearGradient id="brainGradient" x1="0%" y1="0%" x2="100%" y2="100%">
      <stop offset="0%" style="stop-color:#8B5CF6;stop-opacity:1" />
      <stop offset="50%" style="stop-color:#00D9FF;stop-opacity:1" />
      <stop offset="100%" style="stop-color:#39FF14;stop-opacity:1" />
    </linearGradient>
    <linearGradient id="waveGradient" x1="0%" y1="0%" x2="100%" y2="0%">
      <stop offset="0%" style="stop-color:#39FF14;stop-opacity:1" />
      <stop offset="50%" style="stop-color:#00D9FF;stop-opacity:1" />
      <stop offset="100%" style="stop-color:#8B5CF6;stop-opacity:1" />
    </linearGradient>
    <filter id="glow">
      <feGaussianBlur stdDeviation="1" result="coloredBlur"/>
      <feMerge>
        <feMergeNode in="coloredBlur"/>
        <feMergeNode in="SourceGraphic"/>
      </feMerge>
    </filter>
  </defs>
  
  <!-- Background circle -->
  <circle cx="32" cy="32" r="30" fill="#0A0A0A" stroke="url(#brainGradient)" stroke-width="2"/>
  
  <!-- Inner glow circle for depth -->
  <circle cx="32" cy="32" r="26" fill="none" stroke="url(#brainGradient)" stroke-width="1" opacity="0.3"/>
  
  <!-- Brain outline -->
  <g fill="none" stroke="url(#brainGradient)" stroke-width="2.5" filter="url(#glow)">
    <!-- Left brain hemisphere -->
    <path d="M20 28 C18 24, 18 20, 22 18 C26 16, 30 18, 32 22 C32 26, 30 28, 28 30 C26 32, 22 32, 20 28 Z"/>
    <!-- Right brain hemisphere -->
    <path d="M44 28 C46 24, 46 20, 42 18 C38 16, 34 18, 32 22 C32 26, 34 28, 36 30 C38 32, 42 32, 44 28 Z"/>
    <!-- Brain stem -->
    <path d="M32 30 L32 38 C32 40, 30 42, 28 42 L36 42 C34 42, 32 40, 32 38"/>
  </g>
  
  <!-- Sound waves emanating from brain -->
  <g fill="none" stroke="url(#waveGradient)" stroke-width="2" opacity="0.8">
    <!-- Wave 1 -->
    <path d="M12 32 C16 28, 16 36, 20 32" stroke-width="2.5"/>
    <path d="M44 32 C48 28, 48 36, 52 32" stroke-width="2.5"/>
    
    <!-- Wave 2 -->
    <path d="M8 32 C12 26, 12 38, 16 32" stroke-width="2"/>
    <path d="M48 32 C52 26, 52 38, 56 32" stroke-width="2"/>
    
    <!-- Wave 3 -->
    <path d="M4 32 C8 24, 8 40, 12 32" stroke-width="1.5"/>
    <path d="M52 32 C56 24, 56 40, 60 32" stroke-width="1.5"/>
  </g>
  
  <!-- Central neural spark -->
  <circle cx="32" cy="25" r="2.5" fill="#39FF14" opacity="0.9">
    <animate attributeName="opacity" values="0.9;0.5;0.9" dur="2s" repeatCount="indefinite"/>
  </circle>
  <!-- Spark glow -->
  <circle cx="32" cy="25" r="4" fill="none" stroke="#39FF14" stroke-width="1" opacity="0.5">
    <animate attributeName="r" values="4;6;4" dur="2s" repeatCount="indefinite"/>
    <animate attributeName="opacity" values="0.5;0.2;0.5" dur="2s" repeatCount="indefinite"/>
  </circle>
  
  <!-- Synaptic connections -->
  <g stroke="#00D9FF" stroke-width="1" opacity="0.6">
    <line x1="24" y1="24" x2="28" y2="26"/>
    <line x1="40" y1="24" x2="36" y2="26"/>
    <line x1="28" y1="32" x2="32" y2="28"/>
    <line x1="36" y1="32" x2="32" y2="28"/>
  </g>
  
  <!-- Frequency visualization dots -->
  <g fill="#8B5CF6" opacity="0.7">
    <circle cx="32" cy="44" r="1">
      <animate attributeName="r" values="1;2;1" dur="1.5s" repeatCount="indefinite"/>
    </circle>
    <circle cx="28" cy="46" r="1">
      <animate attributeName="r" values="1;1.5;1" dur="1.8s" repeatCount="indefinite"/>
    </circle>
    <circle cx="36" cy="46" r="1">
      <animate attributeName="r" values="1;1.5;1" dur="1.2s" repeatCount="indefinite"/>
    </circle>
  </g>
</svg>